<svg id="visual" viewBox="0 0 900 600" width="900" height="600" xmlns="http://www.w3.org/2000/svg" xmlns:xlink="http://www.w3.org/1999/xlink" version="1.1"><path d="M0 456L21.5 447.8C43 439.7 86 423.3 128.8 424.5C171.7 425.7 214.3 444.3 257.2 460.3C300 476.3 343 489.7 385.8 493.5C428.7 497.3 471.3 491.7 514.2 478.5C557 465.3 600 444.7 642.8 449.7C685.7 454.7 728.3 485.3 771.2 488.2C814 491 857 466 878.5 453.5L900 441L900 601L878.5 601C857 601 814 601 771.2 601C728.3 601 685.7 601 642.8 601C600 601 557 601 514.2 601C471.3 601 428.7 601 385.8 601C343 601 300 601 257.2 601C214.3 601 171.7 601 128.8 601C86 601 43 601 21.5 601L0 601Z" fill="#fff" stroke-linecap="round" stroke-linejoin="miter"></path></svg>